<?xml version="1.0" encoding="utf-8"?>
<!-- Generator: Adobe Illustrator 24.0.1, SVG Export Plug-In . SVG Version: 6.00 Build 0)  -->
<svg version="1.1" id="圖層_1" xmlns="http://www.w3.org/2000/svg" xmlns:xlink="http://www.w3.org/1999/xlink" x="0px" y="0px" viewBox="0 0 1626 2300" style="enable-background:new 0 0 1626 2300;" xml:space="preserve">
	<style type="text/css">
	.st0{fill:#0C354B;}
	.st1{fill:#E5A83D;}
	.st2{font-family:'NotoSansCJKtc-Bold-B5pc-H';}
	.st3{font-size:66px;}
	.st4{fill:#E3AA39;}
	.st5{font-family:'Arial-BoldMT';}
	.st6{font-size:291.7761px;}
	.st7{fill:none;stroke:#E3AA39;stroke-miterlimit:10;}
	.st8{font-family:'NotoSansCJKtc-Light-B5pc-H';}
	.st9{font-size:88px;}
	.st10{font-family:'NotoSansCJKtc-Medium-B5pc-H';}
	.st11{font-size:94px;}
	.st12{fill:none;stroke:#8AAFC1;stroke-miterlimit:10;}
	.st13{font-size:60.6493px;}
	.st14{font-size:106px;}
	.st15{fill:none;}
	.st16{font-size:44px;}
	.st17{letter-spacing:6;}
	.st18{fill:#FFFFFF;}
	.st19{letter-spacing:1;}
	.st20{font-size:68px;}
</style>
	<rect class="st0" width="1626" height="2300" />
	<text transform="matrix(1 0 0 1 94.5001 449.017)" class="st1 st2 st3">死亡</text>
	<g>
		<text transform="matrix(1 0 0 1 100 698.1412)" class="st4 st5 st6">204</text>
	</g>
	<g>
		<rect x="650" y="385.6" class="st7" width="800" height="336.8" />
		<g>
			<text transform="matrix(1 0 0 1 700 519.593)" class="st4 st8 st9">受傷</text>
			<text transform="matrix(1 0 0 1 1000 521.5084)" class="st4 st10 st11">32131</text>
			<text transform="matrix(1 0 0 1 1000 651.7274)" class="st4 st10 st11">24108</text>
			<text transform="matrix(1 0 0 1 700 649.4965)" class="st4 st8 st9">事故</text>
		</g>
	</g>
	<line class="st12" x1="90" y1="745.5" x2="1536" y2="745.5" />
	<g>
		<g>
			<rect x="100" y="161.1" class="st4" width="450" height="190.4" />
			<g>
				<text transform="matrix(1 0 0 1 200 233.9079)" class="st0 st10 st13">事故率</text>
				<g>
					<text transform="matrix(1 0 0 1 110 330.2121)" class="st0 st5 st14">1291</text>
				</g>
			</g>
		</g>
		<g>
			<rect x="580" y="161.1" class="st4" width="450" height="190.4" />
			<g>
				<text transform="matrix(1 0 0 1 680 233.908)" class="st0 st10 st13">死亡率</text>
				<g>
					<text transform="matrix(1 0 0 1 590 330.2122)" class="st0 st5 st14">10.92</text>
				</g>
			</g>
		</g>
		<g>
			<rect x="1060" y="161.1" class="st4" width="450" height="190.4" />
			<g>
				<text transform="matrix(1 0 0 1 1160 233.908)" class="st0 st10 st13">受傷率</text>
				<g>
					<text transform="matrix(1 0 0 1 1070 330.2122)" class="st0 st5 st14">1720</text>
				</g>
			</g>
		</g>
	</g>
	<rect x="90.6" y="772.1" class="st15" width="1141.8" height="314.8" />
	<text transform="matrix(1 0 0 1 90.5591 810.7965)">
		
		<tspan x="0" y="0" class="st4 st10 st16 st17">安南區</tspan>
		<tspan x="150.6" y="0" class="st18 st10 st16 st17"> 2053 事故， 20 死亡、 2808 受傷</tspan>
		
		<tspan x="0" y="70" class="st4 st10 st16 st17">永康區</tspan>
		<tspan x="150.6" y="70" class="st18 st10 st16 st17"> 3810 事故， 13 死亡、 5162 受傷</tspan>
		
		<tspan x="0" y="140" class="st4 st10 st16 st17">中西區</tspan>
		<tspan x="150.6" y="140" class="st18 st10 st16 st17"> 1650 事故， 11 死亡、 2297 受傷</tspan>
		
		<tspan x="0" y="210" class="st4 st10 st16 st17">東區</tspan>
		<tspan x="150.6" y="210" class="st18 st10 st16 st17"> 2880 事故， 10 死亡、 3929 受傷</tspan>
		
		<tspan x="0" y="280" class="st4 st10 st16 st17">南區</tspan>
		<tspan x="150.6" y="280" class="st18 st10 st16 st17"> 1468 事故， 10 死亡、 1994 受傷</tspan>
		
		<tspan x="0" y="350" class="st4 st10 st16 st17">七股區</tspan>
		<tspan x="150.6" y="350" class="st18 st10 st16 st17"> 177 事故， 10 死亡、 241 受傷</tspan>
		
		<tspan x="0" y="420" class="st4 st10 st16 st17">仁德區</tspan>
		<tspan x="150.6" y="420" class="st18 st10 st16 st17"> 1127 事故， 9 死亡、 1391 受傷</tspan>
		
		<tspan x="0" y="490" class="st4 st10 st16 st17">歸仁區</tspan>
		<tspan x="150.6" y="490" class="st18 st10 st16 st17"> 729 事故， 9 死亡、 886 受傷</tspan>
		
		<tspan x="0" y="560" class="st4 st10 st16 st17">佳里區</tspan>
		<tspan x="150.6" y="560" class="st18 st10 st16 st17"> 671 事故， 9 死亡、 876 受傷</tspan>
		
		<tspan x="0" y="630" class="st4 st10 st16 st17">新營區</tspan>
		<tspan x="150.6" y="630" class="st18 st10 st16 st17"> 884 事故， 8 死亡、 1163 受傷</tspan>
		
		<tspan x="0" y="700" class="st4 st10 st16 st17">北區</tspan>
		<tspan x="150.6" y="700" class="st18 st10 st16 st17"> 2265 事故， 8 死亡、 3083 受傷</tspan>
		
		<tspan x="0" y="770" class="st4 st10 st16 st17">善化區</tspan>
		<tspan x="150.6" y="770" class="st18 st10 st16 st17"> 835 事故， 8 死亡、 1092 受傷</tspan>
		
		<tspan x="0" y="840" class="st4 st10 st16 st17">麻豆區</tspan>
		<tspan x="150.6" y="840" class="st18 st10 st16 st17"> 566 事故， 8 死亡、 752 受傷</tspan>
		
		<tspan x="0" y="910" class="st4 st10 st16 st17">玉井區</tspan>
		<tspan x="150.6" y="910" class="st18 st10 st16 st17"> 68 事故， 7 死亡、 90 受傷</tspan>
		
		<tspan x="0" y="980" class="st4 st10 st16 st17">西港區</tspan>
		<tspan x="150.6" y="980" class="st18 st10 st16 st17"> 261 事故， 7 死亡、 345 受傷</tspan>
		
		<tspan x="0" y="1050" class="st4 st10 st16 st17">東山區</tspan>
		<tspan x="150.6" y="1050" class="st18 st10 st16 st17"> 106 事故， 7 死亡、 138 受傷</tspan>
		
		<tspan x="0" y="1120" class="st4 st10 st16 st17">鹽水區</tspan>
		<tspan x="150.6" y="1120" class="st18 st10 st16 st17"> 190 事故， 6 死亡、 244 受傷</tspan>
		
		<tspan x="0" y="1190" class="st4 st10 st16 st17">後壁區</tspan>
		<tspan x="150.6" y="1190" class="st18 st10 st16 st17"> 137 事故， 5 死亡、 163 受傷</tspan>
		
		<tspan x="0" y="1260" class="st4 st10 st16 st17">學甲區</tspan>
		<tspan x="150.6" y="1260" class="st18 st10 st16 st17"> 162 事故， 4 死亡、 189 受傷</tspan>
		
		<tspan x="0" y="1330" class="st4 st10 st16 st17">安定區</tspan>
		<tspan x="150.6" y="1330" class="st18 st10 st16 st17"> 394 事故， 4 死亡、 508 受傷</tspan>
		
		<tspan x="0" y="1400" class="st4 st10 st16 st17">安平區</tspan>
		<tspan x="150.6" y="1400" class="st18 st10 st16 st17"> 774 事故， 4 死亡、 985 受傷</tspan>
		
		<tspan x="0" y="1470" class="st4 st10 st16 st17">新化區</tspan>
		<tspan x="150.6" y="1470" class="st18 st10 st16 st17"> 540 事故， 3 死亡、 730 受傷</tspan>
		
		<tspan x="0" y="1540" class="st4 st10 st16 st17">柳營區</tspan>
		<tspan x="150.6" y="1540" class="st18 st10 st16 st17"> 213 事故， 3 死亡、 280 受傷</tspan>
		
		<tspan x="0" y="1610" class="st4 st10 st16 st17">官田區</tspan>
		<tspan x="150.6" y="1610" class="st18 st10 st16 st17"> 229 事故， 3 死亡、 305 受傷</tspan>
		
		<tspan x="0" y="1680" class="st4 st10 st16 st17">新市區</tspan>
		<tspan x="150.6" y="1680" class="st18 st10 st16 st17"> 781 事故， 3 死亡、 1034 受傷</tspan>
		
		<tspan x="0" y="1750" class="st4 st10 st16 st17">龍崎區</tspan>
		<tspan x="150.6" y="1750" class="st18 st10 st16 st17"> 27 事故， 3 死亡、 30 受傷</tspan>
		
		<tspan x="0" y="1820" class="st4 st10 st16 st17">下營區</tspan>
		<tspan x="150.6" y="1820" class="st18 st10 st16 st17"> 178 事故， 3 死亡、 232 受傷</tspan>
		
		<tspan x="0" y="1890" class="st4 st10 st16 st17">左鎮區</tspan>
		<tspan x="150.6" y="1890" class="st18 st10 st16 st17"> 34 事故， 2 死亡、 45 受傷</tspan>
		
		<tspan x="0" y="1960" class="st4 st10 st16 st17">白河區</tspan>
		<tspan x="150.6" y="1960" class="st18 st10 st16 st17"> 173 事故， 2 死亡、 213 受傷</tspan>
		
		<tspan x="0" y="2030" class="st4 st10 st16 st17">將軍區</tspan>
		<tspan x="150.6" y="2030" class="st18 st10 st16 st17"> 69 事故， 1 死亡、 86 受傷</tspan>
		
		<tspan x="0" y="2100" class="st4 st10 st16 st17">關廟區</tspan>
		<tspan x="150.6" y="2100" class="st18 st10 st16 st17"> 246 事故， 1 死亡、 306 受傷</tspan>
		
		<tspan x="0" y="2170" class="st4 st10 st16 st17">山上區</tspan>
		<tspan x="150.6" y="2170" class="st18 st10 st16 st17"> 91 事故， 1 死亡、 119 受傷</tspan>
		
		<tspan x="0" y="2240" class="st4 st10 st16 st17">六甲區</tspan>
		<tspan x="150.6" y="2240" class="st18 st10 st16 st17"> 185 事故， 1 死亡、 235 受傷</tspan>
		
		<tspan x="0" y="2310" class="st4 st10 st16 st17">北門區</tspan>
		<tspan x="150.6" y="2310" class="st18 st10 st16 st17"> 53 事故， 1 死亡、 65 受傷</tspan>
		
		<tspan x="0" y="2380" class="st4 st10 st16 st17">大內區</tspan>
		<tspan x="150.6" y="2380" class="st18 st10 st16 st17"> 39 事故， 0 死亡、 57 受傷</tspan>
		
		<tspan x="0" y="2450" class="st4 st10 st16 st17">南化區</tspan>
		<tspan x="150.6" y="2450" class="st18 st10 st16 st17"> 14 事故， 0 死亡、 21 受傷</tspan>
		
		<tspan x="0" y="2520" class="st4 st10 st16 st17">楠西區</tspan>
		<tspan x="150.6" y="2520" class="st18 st10 st16 st17"> 29 事故， 0 死亡、 37 受傷</tspan>
			</text>
	<text transform="matrix(1 0 0 1 100 119.2712)" class="st18 st8 st20">國內交通事故通報  |  2021 | 臺南市@09-29</text>
</svg>
