<?xml version="1.0" encoding="utf-8"?>
<!-- Generator: Adobe Illustrator 24.0.1, SVG Export Plug-In . SVG Version: 6.00 Build 0)  -->
<svg version="1.1" id="圖層_1" xmlns="http://www.w3.org/2000/svg" xmlns:xlink="http://www.w3.org/1999/xlink" x="0px" y="0px" viewBox="0 0 1626 2300" style="enable-background:new 0 0 1626 2300;" xml:space="preserve">
	<style type="text/css">
	.st0{fill:#0C354B;}
	.st1{fill:#E5A83D;}
	.st2{font-family:'NotoSansCJKtc-Bold-B5pc-H';}
	.st3{font-size:66px;}
	.st4{fill:#E3AA39;}
	.st5{font-family:'Arial-BoldMT';}
	.st6{font-size:291.7761px;}
	.st7{fill:none;stroke:#E3AA39;stroke-miterlimit:10;}
	.st8{font-family:'NotoSansCJKtc-Light-B5pc-H';}
	.st9{font-size:88px;}
	.st10{font-family:'NotoSansCJKtc-Medium-B5pc-H';}
	.st11{font-size:94px;}
	.st12{fill:none;stroke:#8AAFC1;stroke-miterlimit:10;}
	.st13{font-size:60.6493px;}
	.st14{font-size:106px;}
	.st15{fill:none;}
	.st16{font-size:44px;}
	.st17{letter-spacing:6;}
	.st18{fill:#FFFFFF;}
	.st19{letter-spacing:1;}
	.st20{font-size:68px;}
</style>
	<rect class="st0" width="1626" height="2300" />
	<text transform="matrix(1 0 0 1 94.5001 449.017)" class="st1 st2 st3">死亡</text>
	<g>
		<text transform="matrix(1 0 0 1 100 698.1412)" class="st4 st5 st6">97</text>
	</g>
	<g>
		<rect x="650" y="385.6" class="st7" width="800" height="336.8" />
		<g>
			<text transform="matrix(1 0 0 1 700 519.593)" class="st4 st8 st9">受傷</text>
			<text transform="matrix(1 0 0 1 1000 521.5084)" class="st4 st10 st11">19511</text>
			<text transform="matrix(1 0 0 1 1000 651.7274)" class="st4 st10 st11">8499</text>
			<text transform="matrix(1 0 0 1 700 649.4965)" class="st4 st8 st9">事故</text>
		</g>
	</g>
	<line class="st12" x1="90" y1="745.5" x2="1536" y2="745.5" />
	<g>
		<g>
			<rect x="100" y="161.1" class="st4" width="450" height="190.4" />
			<g>
				<text transform="matrix(1 0 0 1 200 233.9079)" class="st0 st10 st13">事故率</text>
				<g>
					<text transform="matrix(1 0 0 1 110 330.2121)" class="st0 st5 st14">1890</text>
				</g>
			</g>
		</g>
		<g>
			<rect x="580" y="161.1" class="st4" width="450" height="190.4" />
			<g>
				<text transform="matrix(1 0 0 1 680 233.908)" class="st0 st10 st13">死亡率</text>
				<g>
					<text transform="matrix(1 0 0 1 590 330.2122)" class="st0 st5 st14">21.57</text>
				</g>
			</g>
		</g>
		<g>
			<rect x="1060" y="161.1" class="st4" width="450" height="190.4" />
			<g>
				<text transform="matrix(1 0 0 1 1160 233.908)" class="st0 st10 st13">受傷率</text>
				<g>
					<text transform="matrix(1 0 0 1 1070 330.2122)" class="st0 st5 st14">4339</text>
				</g>
			</g>
		</g>
	</g>
	<rect x="90.6" y="772.1" class="st15" width="1141.8" height="314.8" />
	<text transform="matrix(1 0 0 1 90.5591 810.7965)">
		
		<tspan x="0" y="0" class="st4 st10 st16 st17">宜蘭市</tspan>
		<tspan x="150.6" y="0" class="st18 st10 st16 st17"> 2271 事故， 15 死亡、 5128 受傷</tspan>
		
		<tspan x="0" y="70" class="st4 st10 st16 st17">礁溪鄉</tspan>
		<tspan x="150.6" y="70" class="st18 st10 st16 st17"> 763 事故， 12 死亡、 1749 受傷</tspan>
		
		<tspan x="0" y="140" class="st4 st10 st16 st17">羅東鎮</tspan>
		<tspan x="150.6" y="140" class="st18 st10 st16 st17"> 1525 事故， 11 死亡、 3423 受傷</tspan>
		
		<tspan x="0" y="210" class="st4 st10 st16 st17">冬山鄉</tspan>
		<tspan x="150.6" y="210" class="st18 st10 st16 st17"> 923 事故， 11 死亡、 2100 受傷</tspan>
		
		<tspan x="0" y="280" class="st4 st10 st16 st17">三星鄉</tspan>
		<tspan x="150.6" y="280" class="st18 st10 st16 st17"> 418 事故， 9 死亡、 1050 受傷</tspan>
		
		<tspan x="0" y="350" class="st4 st10 st16 st17">蘇澳鎮</tspan>
		<tspan x="150.6" y="350" class="st18 st10 st16 st17"> 521 事故， 8 死亡、 1208 受傷</tspan>
		
		<tspan x="0" y="420" class="st4 st10 st16 st17">五結鄉</tspan>
		<tspan x="150.6" y="420" class="st18 st10 st16 st17"> 783 事故， 8 死亡、 1806 受傷</tspan>
		
		<tspan x="0" y="490" class="st4 st10 st16 st17">壯圍鄉</tspan>
		<tspan x="150.6" y="490" class="st18 st10 st16 st17"> 330 事故， 6 死亡、 765 受傷</tspan>
		
		<tspan x="0" y="560" class="st4 st10 st16 st17">員山鄉</tspan>
		<tspan x="150.6" y="560" class="st18 st10 st16 st17"> 474 事故， 5 死亡、 1089 受傷</tspan>
		
		<tspan x="0" y="630" class="st4 st10 st16 st17">頭城鎮</tspan>
		<tspan x="150.6" y="630" class="st18 st10 st16 st17"> 348 事故， 5 死亡、 816 受傷</tspan>
		
		<tspan x="0" y="700" class="st4 st10 st16 st17">南澳鄉</tspan>
		<tspan x="150.6" y="700" class="st18 st10 st16 st17"> 54 事故， 4 死亡、 123 受傷</tspan>
		
		<tspan x="0" y="770" class="st4 st10 st16 st17">大同鄉</tspan>
		<tspan x="150.6" y="770" class="st18 st10 st16 st17"> 89 事故， 3 死亡、 254 受傷</tspan>
			</text>
	<text transform="matrix(1 0 0 1 100 119.2712)" class="st18 st8 st20">國內交通事故通報  |  2023 | 宜蘭縣</text>
</svg>
