<?xml version="1.0" encoding="utf-8"?>
<!-- Generator: Adobe Illustrator 24.0.1, SVG Export Plug-In . SVG Version: 6.00 Build 0)  -->
<svg version="1.1" id="圖層_1" xmlns="http://www.w3.org/2000/svg" xmlns:xlink="http://www.w3.org/1999/xlink" x="0px" y="0px" viewBox="0 0 1626 2300" style="enable-background:new 0 0 1626 2300;" xml:space="preserve">
	<style type="text/css">
	.st0{fill:#0C354B;}
	.st1{fill:#E5A83D;}
	.st2{font-family:'NotoSansCJKtc-Bold-B5pc-H';}
	.st3{font-size:66px;}
	.st4{fill:#E3AA39;}
	.st5{font-family:'Arial-BoldMT';}
	.st6{font-size:291.7761px;}
	.st7{fill:none;stroke:#E3AA39;stroke-miterlimit:10;}
	.st8{font-family:'NotoSansCJKtc-Light-B5pc-H';}
	.st9{font-size:88px;}
	.st10{font-family:'NotoSansCJKtc-Medium-B5pc-H';}
	.st11{font-size:94px;}
	.st12{fill:none;stroke:#8AAFC1;stroke-miterlimit:10;}
	.st13{font-size:60.6493px;}
	.st14{font-size:106px;}
	.st15{fill:none;}
	.st16{font-size:44px;}
	.st17{letter-spacing:6;}
	.st18{fill:#FFFFFF;}
	.st19{letter-spacing:1;}
	.st20{font-size:68px;}
</style>
	<rect class="st0" width="1626" height="2300" />
	<text transform="matrix(1 0 0 1 94.5001 449.017)" class="st1 st2 st3">死亡</text>
	<g>
		<text transform="matrix(1 0 0 1 100 698.1412)" class="st4 st5 st6">221</text>
	</g>
	<g>
		<rect x="650" y="385.6" class="st7" width="800" height="336.8" />
		<g>
			<text transform="matrix(1 0 0 1 700 519.593)" class="st4 st8 st9">受傷</text>
			<text transform="matrix(1 0 0 1 1000 521.5084)" class="st4 st10 st11">53792</text>
			<text transform="matrix(1 0 0 1 1000 651.7274)" class="st4 st10 st11">24396</text>
			<text transform="matrix(1 0 0 1 700 649.4965)" class="st4 st8 st9">事故</text>
		</g>
	</g>
	<line class="st12" x1="90" y1="745.5" x2="1536" y2="745.5" />
	<g>
		<g>
			<rect x="100" y="161.1" class="st4" width="450" height="190.4" />
			<g>
				<text transform="matrix(1 0 0 1 200 233.9079)" class="st0 st10 st13">事故率</text>
				<g>
					<text transform="matrix(1 0 0 1 110 330.2121)" class="st0 st5 st14">1963</text>
				</g>
			</g>
		</g>
		<g>
			<rect x="580" y="161.1" class="st4" width="450" height="190.4" />
			<g>
				<text transform="matrix(1 0 0 1 680 233.908)" class="st0 st10 st13">死亡率</text>
				<g>
					<text transform="matrix(1 0 0 1 590 330.2122)" class="st0 st5 st14">17.79</text>
				</g>
			</g>
		</g>
		<g>
			<rect x="1060" y="161.1" class="st4" width="450" height="190.4" />
			<g>
				<text transform="matrix(1 0 0 1 1160 233.908)" class="st0 st10 st13">受傷率</text>
				<g>
					<text transform="matrix(1 0 0 1 1070 330.2122)" class="st0 st5 st14">4329</text>
				</g>
			</g>
		</g>
	</g>
	<rect x="90.6" y="772.1" class="st15" width="1141.8" height="314.8" />
	<text transform="matrix(1 0 0 1 90.5591 810.7965)">
		
		<tspan x="0" y="0" class="st4 st10 st16 st17">彰化市</tspan>
		<tspan x="150.6" y="0" class="st18 st10 st16 st17"> 6261 事故， 29 死亡、 13856 受傷</tspan>
		
		<tspan x="0" y="70" class="st4 st10 st16 st17">員林市</tspan>
		<tspan x="150.6" y="70" class="st18 st10 st16 st17"> 2808 事故， 17 死亡、 6197 受傷</tspan>
		
		<tspan x="0" y="140" class="st4 st10 st16 st17">鹿港鎮</tspan>
		<tspan x="150.6" y="140" class="st18 st10 st16 st17"> 1993 事故， 16 死亡、 4355 受傷</tspan>
		
		<tspan x="0" y="210" class="st4 st10 st16 st17">和美鎮</tspan>
		<tspan x="150.6" y="210" class="st18 st10 st16 st17"> 1757 事故， 14 死亡、 3859 受傷</tspan>
		
		<tspan x="0" y="280" class="st4 st10 st16 st17">二林鎮</tspan>
		<tspan x="150.6" y="280" class="st18 st10 st16 st17"> 779 事故， 12 死亡、 1701 受傷</tspan>
		
		<tspan x="0" y="350" class="st4 st10 st16 st17">溪州鄉</tspan>
		<tspan x="150.6" y="350" class="st18 st10 st16 st17"> 392 事故， 12 死亡、 865 受傷</tspan>
		
		<tspan x="0" y="420" class="st4 st10 st16 st17">花壇鄉</tspan>
		<tspan x="150.6" y="420" class="st18 st10 st16 st17"> 926 事故， 10 死亡、 2050 受傷</tspan>
		
		<tspan x="0" y="490" class="st4 st10 st16 st17">福興鄉</tspan>
		<tspan x="150.6" y="490" class="st18 st10 st16 st17"> 971 事故， 10 死亡、 2127 受傷</tspan>
		
		<tspan x="0" y="560" class="st4 st10 st16 st17">線西鄉</tspan>
		<tspan x="150.6" y="560" class="st18 st10 st16 st17"> 297 事故， 9 死亡、 656 受傷</tspan>
		
		<tspan x="0" y="630" class="st4 st10 st16 st17">埤頭鄉</tspan>
		<tspan x="150.6" y="630" class="st18 st10 st16 st17"> 481 事故， 9 死亡、 1085 受傷</tspan>
		
		<tspan x="0" y="700" class="st4 st10 st16 st17">北斗鎮</tspan>
		<tspan x="150.6" y="700" class="st18 st10 st16 st17"> 705 事故， 9 死亡、 1539 受傷</tspan>
		
		<tspan x="0" y="770" class="st4 st10 st16 st17">社頭鄉</tspan>
		<tspan x="150.6" y="770" class="st18 st10 st16 st17"> 504 事故， 8 死亡、 1084 受傷</tspan>
		
		<tspan x="0" y="840" class="st4 st10 st16 st17">溪湖鎮</tspan>
		<tspan x="150.6" y="840" class="st18 st10 st16 st17"> 1041 事故， 8 死亡、 2299 受傷</tspan>
		
		<tspan x="0" y="910" class="st4 st10 st16 st17">伸港鄉</tspan>
		<tspan x="150.6" y="910" class="st18 st10 st16 st17"> 520 事故， 7 死亡、 1137 受傷</tspan>
		
		<tspan x="0" y="980" class="st4 st10 st16 st17">埔鹽鄉</tspan>
		<tspan x="150.6" y="980" class="st18 st10 st16 st17"> 405 事故， 7 死亡、 897 受傷</tspan>
		
		<tspan x="0" y="1050" class="st4 st10 st16 st17">芬園鄉</tspan>
		<tspan x="150.6" y="1050" class="st18 st10 st16 st17"> 373 事故， 6 死亡、 811 受傷</tspan>
		
		<tspan x="0" y="1120" class="st4 st10 st16 st17">大村鄉</tspan>
		<tspan x="150.6" y="1120" class="st18 st10 st16 st17"> 623 事故， 6 死亡、 1393 受傷</tspan>
		
		<tspan x="0" y="1190" class="st4 st10 st16 st17">大城鄉</tspan>
		<tspan x="150.6" y="1190" class="st18 st10 st16 st17"> 165 事故， 6 死亡、 369 受傷</tspan>
		
		<tspan x="0" y="1260" class="st4 st10 st16 st17">芳苑鄉</tspan>
		<tspan x="150.6" y="1260" class="st18 st10 st16 st17"> 331 事故， 5 死亡、 745 受傷</tspan>
		
		<tspan x="0" y="1330" class="st4 st10 st16 st17">秀水鄉</tspan>
		<tspan x="150.6" y="1330" class="st18 st10 st16 st17"> 770 事故， 4 死亡、 1721 受傷</tspan>
		
		<tspan x="0" y="1400" class="st4 st10 st16 st17">永靖鄉</tspan>
		<tspan x="150.6" y="1400" class="st18 st10 st16 st17"> 498 事故， 4 死亡、 1110 受傷</tspan>
		
		<tspan x="0" y="1470" class="st4 st10 st16 st17">田尾鄉</tspan>
		<tspan x="150.6" y="1470" class="st18 st10 st16 st17"> 350 事故， 4 死亡、 768 受傷</tspan>
		
		<tspan x="0" y="1540" class="st4 st10 st16 st17">田中鎮</tspan>
		<tspan x="150.6" y="1540" class="st18 st10 st16 st17"> 573 事故， 3 死亡、 1249 受傷</tspan>
		
		<tspan x="0" y="1610" class="st4 st10 st16 st17">埔心鄉</tspan>
		<tspan x="150.6" y="1610" class="st18 st10 st16 st17"> 656 事故， 3 死亡、 1440 受傷</tspan>
		
		<tspan x="0" y="1680" class="st4 st10 st16 st17">竹塘鄉</tspan>
		<tspan x="150.6" y="1680" class="st18 st10 st16 st17"> 116 事故， 2 死亡、 263 受傷</tspan>
		
		<tspan x="0" y="1750" class="st4 st10 st16 st17">二水鄉</tspan>
		<tspan x="150.6" y="1750" class="st18 st10 st16 st17"> 101 事故， 1 死亡、 216 受傷</tspan>
			</text>
	<text transform="matrix(1 0 0 1 100 119.2712)" class="st18 st8 st20">國內交通事故通報  |  2023 | 彰化縣</text>
</svg>
