<?xml version="1.0" encoding="utf-8"?>
<!-- Generator: Adobe Illustrator 24.0.1, SVG Export Plug-In . SVG Version: 6.00 Build 0)  -->
<svg version="1.1" id="圖層_1" xmlns="http://www.w3.org/2000/svg" xmlns:xlink="http://www.w3.org/1999/xlink" x="0px" y="0px" viewBox="0 0 1339 975.3" style="enable-background:new 0 0 1339 975.3;" xml:space="preserve">
	<style type="text/css">
	.st0{fill:#0C354B;}
	.st1{fill:#E5A83D;}
	.st2{font-family:'NotoSansCJKtc-Bold-B5pc-H';}
	.st3{font-size:66px;}
	.st4{fill:#E3AA39;}
	.st5{font-family:'Arial-BoldMT';}
	.st6{font-size:291.7761px;}
	.st7{fill:none;stroke:#E3AA39;stroke-miterlimit:10;}
	.st8{font-family:'NotoSansCJKtc-Light-B5pc-H';}
	.st9{font-size:88px;}
	.st10{font-family:'NotoSansCJKtc-Medium-B5pc-H';}
	.st11{font-size:94px;}
	.st12{fill:none;stroke:#8AAFC1;stroke-miterlimit:10;}
	.st13{font-size:60.6493px;}
	.st14{font-size:106px;}
	.st15{fill:none;}
	.st16{font-size:44px;}
	.st17{letter-spacing:6;}
	.st18{fill:#FFFFFF;}
	.st19{letter-spacing:1;}
	.st20{font-size:68px;}
</style>
	<rect class="st0" width="1339" height="975.3" />
	<text transform="matrix(1 0 0 1 94.5001 449.017)" class="st1 st2 st3">新增死亡</text>
	<g>
		<text transform="matrix(1 0 0 1 211.3641 698.1412)" class="st4 st5 st6">{{new_dies}}</text>
	</g>
	<g>
		<rect x="546.5" y="385.6" class="st7" width="685.8" height="336.8" />
		<g>
			<text transform="matrix(1 0 0 1 582.0433 519.593)" class="st4 st8 st9">受傷人數：</text>
			<text transform="matrix(1 0 0 1 1028.042 521.5084)" class="st4 st10 st11">{{new_hurts}} 人</text>
			<text transform="matrix(1 0 0 1 1027.0419 651.7274)" class="st4 st10 st11">{{new_accidents}} 件</text>
			<text transform="matrix(1 0 0 1 582.0432 649.4965)" class="st4 st8 st9">事故件數：</text>
		</g>
	</g>
	<line class="st12" x1="92.9" y1="745.5" x2="1233.3" y2="745.5" />
	<g>
		<g>
			<rect x="536.5" y="161.1" class="st4" width="267.3" height="190.4" />
			<g>
				<text transform="matrix(1 0 0 1 548.8328 233.908)" class="st0 st10 st13">累計死亡</text>
				<g>
					<text transform="matrix(1 0 0 1 637.6979 330.2122)" class="st0 st5 st14">{{sum_dies}}</text>
				</g>
			</g>
		</g>
		<g>
			<rect x="205.1" y="161.1" class="st4" width="267.3" height="190.4" />
			<g>
				<text transform="matrix(1 0 0 1 217.4478 233.9079)" class="st0 st10 st13">累計事故</text>
				<g>
					<text transform="matrix(1 0 0 1 306.313 330.2121)" class="st0 st5 st14">{{sum_accidents}}</text>
				</g>
			</g>
		</g>
		<g>
			<rect x="867.9" y="161.1" class="st4" width="267.3" height="190.4" />
			<g>
				<text transform="matrix(1 0 0 1 880.2174 233.908)" class="st0 st10 st13">累計受傷</text>
				<g>
					<text transform="matrix(1 0 0 1 972.04 330.2122)" class="st0 st5 st14">{{sum_hurts}}</text>
				</g>
			</g>
		</g>
	</g>
	<rect x="90.6" y="772.1" class="st15" width="1141.8" height="314.8" />
	<text transform="matrix(1 0 0 1 90.5591 810.7965)">
		{{loop_begin}}
		<tspan x="0" y="{{loop_y}}" class="st4 st10 st16 st17">{{loop_city}}</tspan>
		<tspan x="150.6" y="{{loop_y}}" class="st18 st10 st16 st17">{{loop_text}}</tspan>
		{{loop_end}}
	</text>
	<text transform="matrix(1 0 0 1 122.8826 119.2712)" class="st18 st8 st20">國內交通事故通報  |  {{report_date}}</text>
</svg>
