<?xml version="1.0" encoding="utf-8"?>
<!-- Generator: Adobe Illustrator 24.0.1, SVG Export Plug-In . SVG Version: 6.00 Build 0)  -->
<svg version="1.1" id="圖層_1" xmlns="http://www.w3.org/2000/svg" xmlns:xlink="http://www.w3.org/1999/xlink" x="0px" y="0px" viewBox="0 0 1626 2300" style="enable-background:new 0 0 1626 2300;" xml:space="preserve">
	<style type="text/css">
	.st0{fill:#0C354B;}
	.st1{fill:#E5A83D;}
	.st2{font-family:'NotoSansCJKtc-Bold-B5pc-H';}
	.st3{font-size:66px;}
	.st4{fill:#E3AA39;}
	.st5{font-family:'Arial-BoldMT';}
	.st6{font-size:291.7761px;}
	.st7{fill:none;stroke:#E3AA39;stroke-miterlimit:10;}
	.st8{font-family:'NotoSansCJKtc-Light-B5pc-H';}
	.st9{font-size:88px;}
	.st10{font-family:'NotoSansCJKtc-Medium-B5pc-H';}
	.st11{font-size:94px;}
	.st12{fill:none;stroke:#8AAFC1;stroke-miterlimit:10;}
	.st13{font-size:60.6493px;}
	.st14{font-size:106px;}
	.st15{fill:none;}
	.st16{font-size:44px;}
	.st17{letter-spacing:6;}
	.st18{fill:#FFFFFF;}
	.st19{letter-spacing:1;}
	.st20{font-size:68px;}
</style>
	<rect class="st0" width="1626" height="2300" />
	<text transform="matrix(1 0 0 1 94.5001 449.017)" class="st1 st2 st3">死亡</text>
	<g>
		<text transform="matrix(1 0 0 1 100 698.1412)" class="st4 st5 st6">137</text>
	</g>
	<g>
		<rect x="650" y="385.6" class="st7" width="800" height="336.8" />
		<g>
			<text transform="matrix(1 0 0 1 700 519.593)" class="st4 st8 st9">受傷</text>
			<text transform="matrix(1 0 0 1 1000 521.5084)" class="st4 st10 st11">57839</text>
			<text transform="matrix(1 0 0 1 1000 651.7274)" class="st4 st10 st11">42746</text>
			<text transform="matrix(1 0 0 1 700 649.4965)" class="st4 st8 st9">事故</text>
		</g>
	</g>
	<line class="st12" x1="90" y1="745.5" x2="1536" y2="745.5" />
	<g>
		<g>
			<rect x="100" y="161.1" class="st4" width="450" height="190.4" />
			<g>
				<text transform="matrix(1 0 0 1 200 233.9079)" class="st0 st10 st13">事故率</text>
				<g>
					<text transform="matrix(1 0 0 1 110 330.2121)" class="st0 st5 st14">1060</text>
				</g>
			</g>
		</g>
		<g>
			<rect x="580" y="161.1" class="st4" width="450" height="190.4" />
			<g>
				<text transform="matrix(1 0 0 1 680 233.908)" class="st0 st10 st13">死亡率</text>
				<g>
					<text transform="matrix(1 0 0 1 590 330.2122)" class="st0 st5 st14">3.4</text>
				</g>
			</g>
		</g>
		<g>
			<rect x="1060" y="161.1" class="st4" width="450" height="190.4" />
			<g>
				<text transform="matrix(1 0 0 1 1160 233.908)" class="st0 st10 st13">受傷率</text>
				<g>
					<text transform="matrix(1 0 0 1 1070 330.2122)" class="st0 st5 st14">1435</text>
				</g>
			</g>
		</g>
	</g>
	<rect x="90.6" y="772.1" class="st15" width="1141.8" height="314.8" />
	<text transform="matrix(1 0 0 1 90.5591 810.7965)">
		
		<tspan x="0" y="0" class="st4 st10 st16 st17">新莊區</tspan>
		<tspan x="150.6" y="0" class="st18 st10 st16 st17"> 3983 事故， 17 死亡、 5543 受傷</tspan>
		
		<tspan x="0" y="70" class="st4 st10 st16 st17">板橋區</tspan>
		<tspan x="150.6" y="70" class="st18 st10 st16 st17"> 5779 事故， 14 死亡、 8122 受傷</tspan>
		
		<tspan x="0" y="140" class="st4 st10 st16 st17">汐止區</tspan>
		<tspan x="150.6" y="140" class="st18 st10 st16 st17"> 1941 事故， 10 死亡、 2544 受傷</tspan>
		
		<tspan x="0" y="210" class="st4 st10 st16 st17">三峽區</tspan>
		<tspan x="150.6" y="210" class="st18 st10 st16 st17"> 1295 事故， 8 死亡、 1660 受傷</tspan>
		
		<tspan x="0" y="280" class="st4 st10 st16 st17">五股區</tspan>
		<tspan x="150.6" y="280" class="st18 st10 st16 st17"> 1762 事故， 8 死亡、 2296 受傷</tspan>
		
		<tspan x="0" y="350" class="st4 st10 st16 st17">鶯歌區</tspan>
		<tspan x="150.6" y="350" class="st18 st10 st16 st17"> 990 事故， 8 死亡、 1284 受傷</tspan>
		
		<tspan x="0" y="420" class="st4 st10 st16 st17">土城區</tspan>
		<tspan x="150.6" y="420" class="st18 st10 st16 st17"> 2134 事故， 8 死亡、 2841 受傷</tspan>
		
		<tspan x="0" y="490" class="st4 st10 st16 st17">三重區</tspan>
		<tspan x="150.6" y="490" class="st18 st10 st16 st17"> 5579 事故， 8 死亡、 7922 受傷</tspan>
		
		<tspan x="0" y="560" class="st4 st10 st16 st17">新店區</tspan>
		<tspan x="150.6" y="560" class="st18 st10 st16 st17"> 2739 事故， 7 死亡、 3596 受傷</tspan>
		
		<tspan x="0" y="630" class="st4 st10 st16 st17">林口區</tspan>
		<tspan x="150.6" y="630" class="st18 st10 st16 st17"> 1174 事故， 5 死亡、 1421 受傷</tspan>
		
		<tspan x="0" y="700" class="st4 st10 st16 st17">蘆洲區</tspan>
		<tspan x="150.6" y="700" class="st18 st10 st16 st17"> 2209 事故， 5 死亡、 2990 受傷</tspan>
		
		<tspan x="0" y="770" class="st4 st10 st16 st17">淡水區</tspan>
		<tspan x="150.6" y="770" class="st18 st10 st16 st17"> 2103 事故， 5 死亡、 2829 受傷</tspan>
		
		<tspan x="0" y="840" class="st4 st10 st16 st17">樹林區</tspan>
		<tspan x="150.6" y="840" class="st18 st10 st16 st17"> 1209 事故， 4 死亡、 1674 受傷</tspan>
		
		<tspan x="0" y="910" class="st4 st10 st16 st17">中和區</tspan>
		<tspan x="150.6" y="910" class="st18 st10 st16 st17"> 4023 事故， 4 死亡、 5349 受傷</tspan>
		
		<tspan x="0" y="980" class="st4 st10 st16 st17">坪林區</tspan>
		<tspan x="150.6" y="980" class="st18 st10 st16 st17"> 235 事故， 3 死亡、 290 受傷</tspan>
		
		<tspan x="0" y="1050" class="st4 st10 st16 st17">瑞芳區</tspan>
		<tspan x="150.6" y="1050" class="st18 st10 st16 st17"> 202 事故， 3 死亡、 264 受傷</tspan>
		
		<tspan x="0" y="1120" class="st4 st10 st16 st17">貢寮區</tspan>
		<tspan x="150.6" y="1120" class="st18 st10 st16 st17"> 55 事故， 3 死亡、 69 受傷</tspan>
		
		<tspan x="0" y="1190" class="st4 st10 st16 st17">泰山區</tspan>
		<tspan x="150.6" y="1190" class="st18 st10 st16 st17"> 1433 事故， 3 死亡、 1880 受傷</tspan>
		
		<tspan x="0" y="1260" class="st4 st10 st16 st17">八里區</tspan>
		<tspan x="150.6" y="1260" class="st18 st10 st16 st17"> 622 事故， 3 死亡、 801 受傷</tspan>
		
		<tspan x="0" y="1330" class="st4 st10 st16 st17">永和區</tspan>
		<tspan x="150.6" y="1330" class="st18 st10 st16 st17"> 2349 事故， 2 死亡、 3263 受傷</tspan>
		
		<tspan x="0" y="1400" class="st4 st10 st16 st17">石門區</tspan>
		<tspan x="150.6" y="1400" class="st18 st10 st16 st17"> 71 事故， 2 死亡、 97 受傷</tspan>
		
		<tspan x="0" y="1470" class="st4 st10 st16 st17">石碇區</tspan>
		<tspan x="150.6" y="1470" class="st18 st10 st16 st17"> 148 事故， 2 死亡、 182 受傷</tspan>
		
		<tspan x="0" y="1540" class="st4 st10 st16 st17">烏來區</tspan>
		<tspan x="150.6" y="1540" class="st18 st10 st16 st17"> 33 事故， 1 死亡、 37 受傷</tspan>
		
		<tspan x="0" y="1610" class="st4 st10 st16 st17">萬里區</tspan>
		<tspan x="150.6" y="1610" class="st18 st10 st16 st17"> 118 事故， 1 死亡、 161 受傷</tspan>
		
		<tspan x="0" y="1680" class="st4 st10 st16 st17">金山區</tspan>
		<tspan x="150.6" y="1680" class="st18 st10 st16 st17"> 128 事故， 1 死亡、 163 受傷</tspan>
		
		<tspan x="0" y="1750" class="st4 st10 st16 st17">深坑區</tspan>
		<tspan x="150.6" y="1750" class="st18 st10 st16 st17"> 224 事故， 1 死亡、 292 受傷</tspan>
		
		<tspan x="0" y="1820" class="st4 st10 st16 st17">三芝區</tspan>
		<tspan x="150.6" y="1820" class="st18 st10 st16 st17"> 159 事故， 1 死亡、 204 受傷</tspan>
		
		<tspan x="0" y="1890" class="st4 st10 st16 st17">雙溪區</tspan>
		<tspan x="150.6" y="1890" class="st18 st10 st16 st17"> 25 事故， 0 死亡、 29 受傷</tspan>
		
		<tspan x="0" y="1960" class="st4 st10 st16 st17">平溪區</tspan>
		<tspan x="150.6" y="1960" class="st18 st10 st16 st17"> 24 事故， 0 死亡、 36 受傷</tspan>
			</text>
	<text transform="matrix(1 0 0 1 100 119.2712)" class="st18 st8 st20">國內交通事故通報  |  2020 | 新北市</text>
</svg>
