<?xml version="1.0" encoding="utf-8"?>
<!-- Generator: Adobe Illustrator 24.0.1, SVG Export Plug-In . SVG Version: 6.00 Build 0)  -->
<svg version="1.1" id="圖層_1" xmlns="http://www.w3.org/2000/svg" xmlns:xlink="http://www.w3.org/1999/xlink" x="0px" y="0px" viewBox="0 0 1626 2300" style="enable-background:new 0 0 1626 2300;" xml:space="preserve">
	<style type="text/css">
	.st0{fill:#0C354B;}
	.st1{fill:#E5A83D;}
	.st2{font-family:'NotoSansCJKtc-Bold-B5pc-H';}
	.st3{font-size:66px;}
	.st4{fill:#E3AA39;}
	.st5{font-family:'Arial-BoldMT';}
	.st6{font-size:291.7761px;}
	.st7{fill:none;stroke:#E3AA39;stroke-miterlimit:10;}
	.st8{font-family:'NotoSansCJKtc-Light-B5pc-H';}
	.st9{font-size:88px;}
	.st10{font-family:'NotoSansCJKtc-Medium-B5pc-H';}
	.st11{font-size:94px;}
	.st12{fill:none;stroke:#8AAFC1;stroke-miterlimit:10;}
	.st13{font-size:60.6493px;}
	.st14{font-size:106px;}
	.st15{fill:none;}
	.st16{font-size:44px;}
	.st17{letter-spacing:6;}
	.st18{fill:#FFFFFF;}
	.st19{letter-spacing:1;}
	.st20{font-size:68px;}
</style>
	<rect class="st0" width="1626" height="2300" />
	<text transform="matrix(1 0 0 1 94.5001 449.017)" class="st1 st2 st3">死亡</text>
	<g>
		<text transform="matrix(1 0 0 1 100 698.1412)" class="st4 st5 st6">211</text>
	</g>
	<g>
		<rect x="650" y="385.6" class="st7" width="800" height="336.8" />
		<g>
			<text transform="matrix(1 0 0 1 700 519.593)" class="st4 st8 st9">受傷</text>
			<text transform="matrix(1 0 0 1 1000 521.5084)" class="st4 st10 st11">56525</text>
			<text transform="matrix(1 0 0 1 1000 651.7274)" class="st4 st10 st11">42203</text>
			<text transform="matrix(1 0 0 1 700 649.4965)" class="st4 st8 st9">事故</text>
		</g>
	</g>
	<line class="st12" x1="90" y1="745.5" x2="1536" y2="745.5" />
	<g>
		<g>
			<rect x="100" y="161.1" class="st4" width="450" height="190.4" />
			<g>
				<text transform="matrix(1 0 0 1 200 233.9079)" class="st0 st10 st13">事故率</text>
				<g>
					<text transform="matrix(1 0 0 1 110 330.2121)" class="st0 st5 st14">1496</text>
				</g>
			</g>
		</g>
		<g>
			<rect x="580" y="161.1" class="st4" width="450" height="190.4" />
			<g>
				<text transform="matrix(1 0 0 1 680 233.908)" class="st0 st10 st13">死亡率</text>
				<g>
					<text transform="matrix(1 0 0 1 590 330.2122)" class="st0 st5 st14">7.48</text>
				</g>
			</g>
		</g>
		<g>
			<rect x="1060" y="161.1" class="st4" width="450" height="190.4" />
			<g>
				<text transform="matrix(1 0 0 1 1160 233.908)" class="st0 st10 st13">受傷率</text>
				<g>
					<text transform="matrix(1 0 0 1 1070 330.2122)" class="st0 st5 st14">2004</text>
				</g>
			</g>
		</g>
	</g>
	<rect x="90.6" y="772.1" class="st15" width="1141.8" height="314.8" />
	<text transform="matrix(1 0 0 1 90.5591 810.7965)">
		
		<tspan x="0" y="0" class="st4 st10 st16 st17">西屯區</tspan>
		<tspan x="150.6" y="0" class="st18 st10 st16 st17"> 5139 事故， 24 死亡、 6726 受傷</tspan>
		
		<tspan x="0" y="70" class="st4 st10 st16 st17">北屯區</tspan>
		<tspan x="150.6" y="70" class="st18 st10 st16 st17"> 4205 事故， 18 死亡、 5738 受傷</tspan>
		
		<tspan x="0" y="140" class="st4 st10 st16 st17">龍井區</tspan>
		<tspan x="150.6" y="140" class="st18 st10 st16 st17"> 1218 事故， 13 死亡、 1684 受傷</tspan>
		
		<tspan x="0" y="210" class="st4 st10 st16 st17">清水區</tspan>
		<tspan x="150.6" y="210" class="st18 st10 st16 st17"> 1182 事故， 13 死亡、 1590 受傷</tspan>
		
		<tspan x="0" y="280" class="st4 st10 st16 st17">太平區</tspan>
		<tspan x="150.6" y="280" class="st18 st10 st16 st17"> 1979 事故， 12 死亡、 2624 受傷</tspan>
		
		<tspan x="0" y="350" class="st4 st10 st16 st17">烏日區</tspan>
		<tspan x="150.6" y="350" class="st18 st10 st16 st17"> 1246 事故， 11 死亡、 1630 受傷</tspan>
		
		<tspan x="0" y="420" class="st4 st10 st16 st17">大里區</tspan>
		<tspan x="150.6" y="420" class="st18 st10 st16 st17"> 2179 事故， 11 死亡、 2937 受傷</tspan>
		
		<tspan x="0" y="490" class="st4 st10 st16 st17">東區</tspan>
		<tspan x="150.6" y="490" class="st18 st10 st16 st17"> 1604 事故， 10 死亡、 2160 受傷</tspan>
		
		<tspan x="0" y="560" class="st4 st10 st16 st17">大雅區</tspan>
		<tspan x="150.6" y="560" class="st18 st10 st16 st17"> 1952 事故， 9 死亡、 2600 受傷</tspan>
		
		<tspan x="0" y="630" class="st4 st10 st16 st17">沙鹿區</tspan>
		<tspan x="150.6" y="630" class="st18 st10 st16 st17"> 1899 事故， 9 死亡、 2624 受傷</tspan>
		
		<tspan x="0" y="700" class="st4 st10 st16 st17">南屯區</tspan>
		<tspan x="150.6" y="700" class="st18 st10 st16 st17"> 2335 事故， 8 死亡、 2977 受傷</tspan>
		
		<tspan x="0" y="770" class="st4 st10 st16 st17">霧峰區</tspan>
		<tspan x="150.6" y="770" class="st18 st10 st16 st17"> 1024 事故， 8 死亡、 1401 受傷</tspan>
		
		<tspan x="0" y="840" class="st4 st10 st16 st17">豐原區</tspan>
		<tspan x="150.6" y="840" class="st18 st10 st16 st17"> 1373 事故， 8 死亡、 1812 受傷</tspan>
		
		<tspan x="0" y="910" class="st4 st10 st16 st17">神岡區</tspan>
		<tspan x="150.6" y="910" class="st18 st10 st16 st17"> 656 事故， 8 死亡、 903 受傷</tspan>
		
		<tspan x="0" y="980" class="st4 st10 st16 st17">后里區</tspan>
		<tspan x="150.6" y="980" class="st18 st10 st16 st17"> 848 事故， 7 死亡、 1164 受傷</tspan>
		
		<tspan x="0" y="1050" class="st4 st10 st16 st17">潭子區</tspan>
		<tspan x="150.6" y="1050" class="st18 st10 st16 st17"> 1725 事故， 5 死亡、 2319 受傷</tspan>
		
		<tspan x="0" y="1120" class="st4 st10 st16 st17">大甲區</tspan>
		<tspan x="150.6" y="1120" class="st18 st10 st16 st17"> 1058 事故， 5 死亡、 1420 受傷</tspan>
		
		<tspan x="0" y="1190" class="st4 st10 st16 st17">東勢區</tspan>
		<tspan x="150.6" y="1190" class="st18 st10 st16 st17"> 378 事故， 5 死亡、 462 受傷</tspan>
		
		<tspan x="0" y="1260" class="st4 st10 st16 st17">南區</tspan>
		<tspan x="150.6" y="1260" class="st18 st10 st16 st17"> 1507 事故， 5 死亡、 2043 受傷</tspan>
		
		<tspan x="0" y="1330" class="st4 st10 st16 st17">梧棲區</tspan>
		<tspan x="150.6" y="1330" class="st18 st10 st16 st17"> 1211 事故， 4 死亡、 1619 受傷</tspan>
		
		<tspan x="0" y="1400" class="st4 st10 st16 st17">大肚區</tspan>
		<tspan x="150.6" y="1400" class="st18 st10 st16 st17"> 463 事故， 4 死亡、 619 受傷</tspan>
		
		<tspan x="0" y="1470" class="st4 st10 st16 st17">外埔區</tspan>
		<tspan x="150.6" y="1470" class="st18 st10 st16 st17"> 264 事故， 3 死亡、 352 受傷</tspan>
		
		<tspan x="0" y="1540" class="st4 st10 st16 st17">大安區</tspan>
		<tspan x="150.6" y="1540" class="st18 st10 st16 st17"> 116 事故， 3 死亡、 153 受傷</tspan>
		
		<tspan x="0" y="1610" class="st4 st10 st16 st17">西區</tspan>
		<tspan x="150.6" y="1610" class="st18 st10 st16 st17"> 2777 事故， 3 死亡、 3756 受傷</tspan>
		
		<tspan x="0" y="1680" class="st4 st10 st16 st17">中區</tspan>
		<tspan x="150.6" y="1680" class="st18 st10 st16 st17"> 569 事故， 3 死亡、 793 受傷</tspan>
		
		<tspan x="0" y="1750" class="st4 st10 st16 st17">北區</tspan>
		<tspan x="150.6" y="1750" class="st18 st10 st16 st17"> 2974 事故， 2 死亡、 4030 受傷</tspan>
		
		<tspan x="0" y="1820" class="st4 st10 st16 st17">石岡區</tspan>
		<tspan x="150.6" y="1820" class="st18 st10 st16 st17"> 118 事故， 0 死亡、 145 受傷</tspan>
		
		<tspan x="0" y="1890" class="st4 st10 st16 st17">新社區</tspan>
		<tspan x="150.6" y="1890" class="st18 st10 st16 st17"> 188 事故， 0 死亡、 219 受傷</tspan>
		
		<tspan x="0" y="1960" class="st4 st10 st16 st17">和平區</tspan>
		<tspan x="150.6" y="1960" class="st18 st10 st16 st17"> 16 事故， 0 死亡、 25 受傷</tspan>
			</text>
	<text transform="matrix(1 0 0 1 100 119.2712)" class="st18 st8 st20">國內交通事故通報  |  2020 | 臺中市</text>
</svg>
