<?xml version="1.0" encoding="utf-8"?>
<!-- Generator: Adobe Illustrator 24.0.1, SVG Export Plug-In . SVG Version: 6.00 Build 0)  -->
<svg version="1.1" id="圖層_1" xmlns="http://www.w3.org/2000/svg" xmlns:xlink="http://www.w3.org/1999/xlink" x="0px" y="0px" viewBox="0 0 1626 2300" style="enable-background:new 0 0 1626 2300;" xml:space="preserve">
	<style type="text/css">
	.st0{fill:#0C354B;}
	.st1{fill:#E5A83D;}
	.st2{font-family:'NotoSansCJKtc-Bold-B5pc-H';}
	.st3{font-size:66px;}
	.st4{fill:#E3AA39;}
	.st5{font-family:'Arial-BoldMT';}
	.st6{font-size:291.7761px;}
	.st7{fill:none;stroke:#E3AA39;stroke-miterlimit:10;}
	.st8{font-family:'NotoSansCJKtc-Light-B5pc-H';}
	.st9{font-size:88px;}
	.st10{font-family:'NotoSansCJKtc-Medium-B5pc-H';}
	.st11{font-size:94px;}
	.st12{fill:none;stroke:#8AAFC1;stroke-miterlimit:10;}
	.st13{font-size:60.6493px;}
	.st14{font-size:106px;}
	.st15{fill:none;}
	.st16{font-size:44px;}
	.st17{letter-spacing:6;}
	.st18{fill:#FFFFFF;}
	.st19{letter-spacing:1;}
	.st20{font-size:68px;}
</style>
	<rect class="st0" width="1626" height="2300" />
	<text transform="matrix(1 0 0 1 94.5001 449.017)" class="st1 st2 st3">死亡</text>
	<g>
		<text transform="matrix(1 0 0 1 100 698.1412)" class="st4 st5 st6">49</text>
	</g>
	<g>
		<rect x="650" y="385.6" class="st7" width="800" height="336.8" />
		<g>
			<text transform="matrix(1 0 0 1 700 519.593)" class="st4 st8 st9">受傷</text>
			<text transform="matrix(1 0 0 1 1000 521.5084)" class="st4 st10 st11">6369</text>
			<text transform="matrix(1 0 0 1 1000 651.7274)" class="st4 st10 st11">4713</text>
			<text transform="matrix(1 0 0 1 700 649.4965)" class="st4 st8 st9">事故</text>
		</g>
	</g>
	<line class="st12" x1="90" y1="745.5" x2="1536" y2="745.5" />
	<g>
		<g>
			<rect x="100" y="161.1" class="st4" width="450" height="190.4" />
			<g>
				<text transform="matrix(1 0 0 1 200 233.9079)" class="st0 st10 st13">事故率</text>
				<g>
					<text transform="matrix(1 0 0 1 110 330.2121)" class="st0 st5 st14">1453</text>
				</g>
			</g>
		</g>
		<g>
			<rect x="580" y="161.1" class="st4" width="450" height="190.4" />
			<g>
				<text transform="matrix(1 0 0 1 680 233.908)" class="st0 st10 st13">死亡率</text>
				<g>
					<text transform="matrix(1 0 0 1 590 330.2122)" class="st0 st5 st14">15.11</text>
				</g>
			</g>
		</g>
		<g>
			<rect x="1060" y="161.1" class="st4" width="450" height="190.4" />
			<g>
				<text transform="matrix(1 0 0 1 1160 233.908)" class="st0 st10 st13">受傷率</text>
				<g>
					<text transform="matrix(1 0 0 1 1070 330.2122)" class="st0 st5 st14">1963</text>
				</g>
			</g>
		</g>
	</g>
	<rect x="90.6" y="772.1" class="st15" width="1141.8" height="314.8" />
	<text transform="matrix(1 0 0 1 90.5591 810.7965)">
		
		<tspan x="0" y="0" class="st4 st10 st16 st17">吉安鄉</tspan>
		<tspan x="150.6" y="0" class="st18 st10 st16 st17"> 1236 事故， 8 死亡、 1691 受傷</tspan>
		
		<tspan x="0" y="70" class="st4 st10 st16 st17">新城鄉</tspan>
		<tspan x="150.6" y="70" class="st18 st10 st16 st17"> 294 事故， 7 死亡、 386 受傷</tspan>
		
		<tspan x="0" y="140" class="st4 st10 st16 st17">富里鄉</tspan>
		<tspan x="150.6" y="140" class="st18 st10 st16 st17"> 66 事故， 6 死亡、 85 受傷</tspan>
		
		<tspan x="0" y="210" class="st4 st10 st16 st17">鳳林鎮</tspan>
		<tspan x="150.6" y="210" class="st18 st10 st16 st17"> 106 事故， 6 死亡、 131 受傷</tspan>
		
		<tspan x="0" y="280" class="st4 st10 st16 st17">花蓮市</tspan>
		<tspan x="150.6" y="280" class="st18 st10 st16 st17"> 2266 事故， 4 死亡、 3059 受傷</tspan>
		
		<tspan x="0" y="350" class="st4 st10 st16 st17">光復鄉</tspan>
		<tspan x="150.6" y="350" class="st18 st10 st16 st17"> 78 事故， 4 死亡、 111 受傷</tspan>
		
		<tspan x="0" y="420" class="st4 st10 st16 st17">瑞穗鄉</tspan>
		<tspan x="150.6" y="420" class="st18 st10 st16 st17"> 90 事故， 3 死亡、 118 受傷</tspan>
		
		<tspan x="0" y="490" class="st4 st10 st16 st17">玉里鎮</tspan>
		<tspan x="150.6" y="490" class="st18 st10 st16 st17"> 178 事故， 3 死亡、 226 受傷</tspan>
		
		<tspan x="0" y="560" class="st4 st10 st16 st17">秀林鄉</tspan>
		<tspan x="150.6" y="560" class="st18 st10 st16 st17"> 130 事故， 3 死亡、 183 受傷</tspan>
		
		<tspan x="0" y="630" class="st4 st10 st16 st17">壽豐鄉</tspan>
		<tspan x="150.6" y="630" class="st18 st10 st16 st17"> 217 事故， 3 死亡、 311 受傷</tspan>
		
		<tspan x="0" y="700" class="st4 st10 st16 st17">豐濱鄉</tspan>
		<tspan x="150.6" y="700" class="st18 st10 st16 st17"> 35 事故， 1 死亡、 49 受傷</tspan>
		
		<tspan x="0" y="770" class="st4 st10 st16 st17">萬榮鄉</tspan>
		<tspan x="150.6" y="770" class="st18 st10 st16 st17"> 10 事故， 1 死亡、 10 受傷</tspan>
		
		<tspan x="0" y="840" class="st4 st10 st16 st17">卓溪鄉</tspan>
		<tspan x="150.6" y="840" class="st18 st10 st16 st17"> 7 事故， 0 死亡、 9 受傷</tspan>
			</text>
	<text transform="matrix(1 0 0 1 100 119.2712)" class="st18 st8 st20">國內交通事故通報  |  2020 | 花蓮縣</text>
</svg>
