<?xml version="1.0" encoding="utf-8"?>
<!-- Generator: Adobe Illustrator 24.0.1, SVG Export Plug-In . SVG Version: 6.00 Build 0)  -->
<svg version="1.1" id="圖層_1" xmlns="http://www.w3.org/2000/svg" xmlns:xlink="http://www.w3.org/1999/xlink" x="0px" y="0px" viewBox="0 0 1840 2300" style="enable-background:new 0 0 1840 2300;" xml:space="preserve">
	<style type="text/css">
	.st0{fill:#0C354B;}
	.st1{fill:#E5A83D;}
	.st2{font-family:'NotoSansCJKtc-Bold-B5pc-H';}
	.st3{font-size:66px;}
	.st4{fill:#E3AA39;}
	.st5{font-family:'Arial-BoldMT';}
	.st6{font-size:291.7761px;}
	.st7{fill:none;stroke:#E3AA39;stroke-miterlimit:10;stroke-width:10;}
	.st8{font-family:'NotoSansCJKtc-Light-B5pc-H';}
	.st9{font-size:88px;}
	.st10{font-family:'NotoSansCJKtc-Medium-B5pc-H';}
	.st11{font-size:94px;}
	.st12{fill:none;stroke:#8AAFC1;stroke-miterlimit:10;}
	.st13{font-size:60.6493px;}
	.st14{font-size:106px;}
	.st15{fill:none;}
	.st16{font-size:44px;}
	.st17{letter-spacing:6;}
	.st18{fill:#FFFFFF;}
	.st19{letter-spacing:1;}
	.st20{font-size:68px;}
</style>
	<rect class="st0" width="1840" height="2300" />
	<text transform="matrix(1 0 0 1 94.5001 449.017)" class="st1 st2 st3">新增死亡</text>
	<g>
		<text transform="matrix(1 0 0 1 150 698.1412)" class="st4 st5 st6">34</text>
	</g>
	<g>
		<rect x="800" y="385.6" class="st7" width="880" height="336.8" />
		<g>
			<text transform="matrix(1 0 0 1 830 519.593)" class="st4 st8 st9">受傷</text>
			<text transform="matrix(1 0 0 1 1130 521.5084)" class="st4 st10 st11">6485</text>
			<text transform="matrix(1 0 0 1 1130 651.7274)" class="st4 st10 st11">4894</text>
			<text transform="matrix(1 0 0 1 830 649.4965)" class="st4 st8 st9">事故</text>
		</g>
	</g>
	<line class="st12" x1="90" y1="745.5" x2="1643" y2="745.5" />
	<g>
		<g>
			<rect x="100" y="161.1" class="st4" width="500" height="190.4" />
			<g>
				<text transform="matrix(1 0 0 1 200 233.9079)" class="st0 st10 st13">累計事故</text>
				<g>
					<text transform="matrix(1 0 0 1 110 330.2121)" class="st0 st5 st14">320857</text>
				</g>
			</g>
		</g>
		<g>
			<rect x="640" y="161.1" class="st4" width="500" height="190.4" />
			<g>
				<text transform="matrix(1 0 0 1 740 233.908)" class="st0 st10 st13">累計死亡</text>
				<g>
					<text transform="matrix(1 0 0 1 650 330.2122)" class="st0 st5 st14">1709</text>
				</g>
			</g>
		</g>
		<g>
			<rect x="1180" y="161.1" class="st4" width="500" height="190.4" />
			<g>
				<text transform="matrix(1 0 0 1 1280 233.908)" class="st0 st10 st13">累計受傷</text>
				<g>
					<text transform="matrix(1 0 0 1 1190 330.2122)" class="st0 st5 st14">427403</text>
				</g>
			</g>
		</g>
	</g>
	<rect x="90.6" y="772.1" class="st15" width="1141.8" height="314.8" />
	<text transform="matrix(1 0 0 1 90.5591 810.7965)">
		
		<tspan x="0" y="0" class="st4 st10 st16 st17">桃園市</tspan>
		<tspan x="150.6" y="0" class="st18 st10 st16 st17"> 524 事故， 9 死亡、 670 受傷</tspan>
		
		<tspan x="0" y="70" class="st4 st10 st16 st17">臺中市</tspan>
		<tspan x="150.6" y="70" class="st18 st10 st16 st17"> 325 事故， 5 死亡、 439 受傷</tspan>
		
		<tspan x="0" y="140" class="st4 st10 st16 st17">高雄市</tspan>
		<tspan x="150.6" y="140" class="st18 st10 st16 st17"> 248 事故， 4 死亡、 329 受傷</tspan>
		
		<tspan x="0" y="210" class="st4 st10 st16 st17">新北市</tspan>
		<tspan x="150.6" y="210" class="st18 st10 st16 st17"> 976 事故， 3 死亡、 1339 受傷</tspan>
		
		<tspan x="0" y="280" class="st4 st10 st16 st17">臺南市</tspan>
		<tspan x="150.6" y="280" class="st18 st10 st16 st17"> 362 事故， 2 死亡、 460 受傷</tspan>
		
		<tspan x="0" y="350" class="st4 st10 st16 st17">彰化縣</tspan>
		<tspan x="150.6" y="350" class="st18 st10 st16 st17"> 547 事故， 2 死亡、 702 受傷</tspan>
		
		<tspan x="0" y="420" class="st4 st10 st16 st17">苗栗縣</tspan>
		<tspan x="150.6" y="420" class="st18 st10 st16 st17"> 88 事故， 2 死亡、 110 受傷</tspan>
		
		<tspan x="0" y="490" class="st4 st10 st16 st17">雲林縣</tspan>
		<tspan x="150.6" y="490" class="st18 st10 st16 st17"> 92 事故， 2 死亡、 129 受傷</tspan>
		
		<tspan x="0" y="560" class="st4 st10 st16 st17">臺東縣</tspan>
		<tspan x="150.6" y="560" class="st18 st10 st16 st17"> 54 事故， 1 死亡、 59 受傷</tspan>
		
		<tspan x="0" y="630" class="st4 st10 st16 st17">嘉義縣</tspan>
		<tspan x="150.6" y="630" class="st18 st10 st16 st17"> 165 事故， 1 死亡、 218 受傷</tspan>
		
		<tspan x="0" y="700" class="st4 st10 st16 st17">新竹市</tspan>
		<tspan x="150.6" y="700" class="st18 st10 st16 st17"> 205 事故， 1 死亡、 278 受傷</tspan>
		
		<tspan x="0" y="770" class="st4 st10 st16 st17">花蓮縣</tspan>
		<tspan x="150.6" y="770" class="st18 st10 st16 st17"> 24 事故， 1 死亡、 36 受傷</tspan>
		
		<tspan x="0" y="840" class="st4 st10 st16 st17">新竹縣</tspan>
		<tspan x="150.6" y="840" class="st18 st10 st16 st17"> 216 事故， 1 死亡、 273 受傷</tspan>
		
		<tspan x="0" y="910" class="st4 st10 st16 st17">臺北市</tspan>
		<tspan x="150.6" y="910" class="st18 st10 st16 st17"> 493 事故， 0 死亡、 665 受傷</tspan>
		
		<tspan x="0" y="980" class="st4 st10 st16 st17">屏東縣</tspan>
		<tspan x="150.6" y="980" class="st18 st10 st16 st17"> 249 事故， 0 死亡、 346 受傷</tspan>
		
		<tspan x="0" y="1050" class="st4 st10 st16 st17">南投縣</tspan>
		<tspan x="150.6" y="1050" class="st18 st10 st16 st17"> 152 事故， 0 死亡、 187 受傷</tspan>
		
		<tspan x="0" y="1120" class="st4 st10 st16 st17">宜蘭縣</tspan>
		<tspan x="150.6" y="1120" class="st18 st10 st16 st17"> 53 事故， 0 死亡、 71 受傷</tspan>
		
		<tspan x="0" y="1190" class="st4 st10 st16 st17">基隆市</tspan>
		<tspan x="150.6" y="1190" class="st18 st10 st16 st17"> 84 事故， 0 死亡、 124 受傷</tspan>
		
		<tspan x="0" y="1260" class="st4 st10 st16 st17">澎湖縣</tspan>
		<tspan x="150.6" y="1260" class="st18 st10 st16 st17"> 24 事故， 0 死亡、 35 受傷</tspan>
		
		<tspan x="0" y="1330" class="st4 st10 st16 st17">嘉義市</tspan>
		<tspan x="150.6" y="1330" class="st18 st10 st16 st17"> 3 事故， 0 死亡、 3 受傷</tspan>
		
		<tspan x="0" y="1400" class="st4 st10 st16 st17">金門縣</tspan>
		<tspan x="150.6" y="1400" class="st18 st10 st16 st17"> 10 事故， 0 死亡、 12 受傷</tspan>
			</text>
	<text transform="matrix(1 0 0 1 207 119.2712)" class="st18 st8 st20">國內交通事故通報  |  2021 | 11-29 ~ 12-05</text>
</svg>
